<svg id="Layer_1" data-name="Layer 1" xmlns="http://www.w3.org/2000/svg" viewBox="0 0 129.2 114.92"><defs><style>.cls-1{fill:#fff;}</style></defs><title>ft</title><path class="cls-1" d="M61.46,12.65a8.82,8.82,0,0,1-1.75,5.57,6.37,6.37,0,0,1-5.35,2.27,8.12,8.12,0,0,1-4-.95A12.53,12.53,0,0,1,47.18,17a23.16,23.16,0,0,1-2.71-3.66C43.64,12,42.93,10.85,42.35,10q-4.92.21-7.58,6.83T32.09,37.94v7.38H50.7v7H32.09v51.86a7.85,7.85,0,0,0,1,4.17,6,6,0,0,0,3.11,2.42,22.75,22.75,0,0,0,4.69,1.06c1.95.27,3.64.45,5.06.55v4.83H7.85v-4.83c1.12-.1,2.28-.2,3.48-.29a13.65,13.65,0,0,0,3.11-.59,5.26,5.26,0,0,0,3-2.31,8.22,8.22,0,0,0,1-4.28V52.35H4.19v-7H18.47V40.71q0-16.44,8.53-26.65T48.35,3.86q6.52,0,9.82,2.57A7.66,7.66,0,0,1,61.46,12.65Z" transform="translate(-4.19 -3.86)"/><path class="cls-1" d="M101.09,114.09q-4.77,2-9,3.34a34.69,34.69,0,0,1-10.4,1.35q-9.09,0-12.78-4.58t-3.7-12.92V52.35h-13v-7H65.49V22.83H78.82V45.32H99.55v7H79V92.71a72.37,72.37,0,0,0,.33,7.58,14.18,14.18,0,0,0,1.57,5.31,7.52,7.52,0,0,0,3.52,3.22,15.06,15.06,0,0,0,6.3,1.1c1.22,0,3-.11,5.38-.33a23.92,23.92,0,0,0,5-.84Z" transform="translate(-4.19 -3.86)"/><path class="cls-1" d="M133.39,108.82a9.39,9.39,0,0,1-3,7,10.06,10.06,0,0,1-14.13,0,9.39,9.39,0,0,1-3-7,10,10,0,0,1,20.07,0Z" transform="translate(-4.19 -3.86)"/></svg>